<svg width="512" height="513" viewBox="0 0 512 513" fill="none" xmlns="http://www.w3.org/2000/svg">
<g clip-path="url(#clip0_1_111)">
<mask id="mask0_1_111" style="mask-type:luminance" maskUnits="userSpaceOnUse" x="0" y="0" width="512" height="513">
<path d="M512 0.5H0V512.5H512V0.5Z" fill="white"/>
</mask>
<g mask="url(#mask0_1_111)">
<path d="M49.034 383.299H462.286" stroke="#1A2E35" stroke-linecap="round" stroke-linejoin="round"/>
<path d="M366.351 223.594H336.455V210.96H366.351V223.594Z" stroke="#ECECEC" stroke-miterlimit="10"/>
<path d="M333.063 223.594H303.167V210.96H333.063V223.594Z" stroke="#ECECEC" stroke-miterlimit="10"/>
<path d="M424.825 184.008L432.831 176.222L430.446 173.772C429.745 173.051 429.528 172.002 429.854 171.05C430.034 170.524 430.185 169.989 430.308 169.444C430.529 168.465 431.263 167.686 432.236 167.44L435.549 166.6L432.805 155.771L429.492 156.61C428.519 156.856 427.503 156.522 426.843 155.767C426.475 155.346 426.086 154.946 425.678 154.57C424.939 153.888 424.628 152.862 424.902 151.895L425.833 148.604L415.085 145.57L414.156 148.873C413.884 149.842 413.074 150.541 412.087 150.739C411.819 150.792 411.552 150.854 411.285 150.921C411.018 150.989 410.754 151.063 410.493 151.143C409.536 151.439 408.495 151.21 407.797 150.493L405.395 148.025L397.389 155.812L399.778 158.269C400.479 158.991 400.694 160.041 400.367 160.992C400.188 161.515 400.035 162.05 399.912 162.593C399.691 163.569 398.957 164.348 397.985 164.593L394.671 165.433L397.415 176.263L400.729 175.424C401.701 175.178 402.716 175.512 403.377 176.265C403.743 176.683 404.132 177.082 404.539 177.456C405.279 178.138 405.59 179.163 405.317 180.131L404.387 183.43L415.135 186.464L416.066 183.164C416.339 182.2 417.146 181.501 418.13 181.305C418.399 181.251 418.667 181.191 418.937 181.122C419.203 181.054 419.468 180.98 419.729 180.899C420.691 180.603 421.737 180.833 422.438 181.555L424.825 184.008ZM417.357 174.885C412.46 176.126 407.489 173.165 406.247 168.268C405.006 163.371 407.965 158.39 412.862 157.149C417.76 155.908 422.742 158.876 423.983 163.773C425.225 168.67 422.255 173.644 417.357 174.885Z" fill="#ECECEC"/>
<path d="M81.58 256.881L74.5814 265.584L77.2476 267.726C78.0317 268.356 78.3736 269.371 78.1663 270.355C78.0512 270.899 77.9675 271.45 77.9114 272.006C77.8111 273.004 77.1775 273.866 76.2424 274.229L73.0551 275.466L77.0973 285.88L80.2845 284.644C81.2196 284.281 82.2689 284.491 83.0161 285.159C83.4328 285.532 83.8676 285.881 84.3185 286.205C85.1351 286.792 85.5679 287.773 85.4138 288.766L84.8906 292.145L95.9274 293.848L96.4482 290.456C96.6004 289.461 97.3182 288.669 98.2738 288.353C98.5332 288.267 98.7914 288.174 99.0484 288.075C99.3044 287.975 99.5582 287.869 99.8066 287.758C100.72 287.348 101.781 287.448 102.562 288.075L105.247 290.232L112.246 281.528L109.575 279.38C108.791 278.749 108.45 277.733 108.659 276.749C108.773 276.208 108.86 275.658 108.916 275.105C109.017 274.109 109.649 273.246 110.584 272.884L113.772 271.647L109.73 261.232L106.541 262.47C105.607 262.832 104.56 262.623 103.813 261.956C103.398 261.585 102.964 261.238 102.514 260.916C101.696 260.33 101.262 259.349 101.415 258.355L101.937 254.967L90.8997 253.264L90.3761 256.653C90.2234 257.644 89.5078 258.435 88.5554 258.749C88.295 258.835 88.0348 258.928 87.7755 259.03C87.5195 259.129 87.2657 259.235 87.0163 259.346C86.0984 259.758 85.0326 259.658 84.2486 259.027L81.58 256.881ZM90.1036 265.028C94.8132 263.199 100.108 265.534 101.937 270.244C103.765 274.954 101.433 280.257 96.7233 282.085C92.0137 283.914 86.7071 281.573 84.8789 276.864C83.0506 272.154 85.394 266.856 90.1036 265.028Z" fill="#ECECEC"/>
<path d="M193.425 112.181L196.481 119.383L198.685 118.446C199.334 118.171 200.074 118.295 200.613 118.749C200.911 119 201.223 119.236 201.548 119.454C202.131 119.846 202.453 120.523 202.367 121.22L202.076 123.597L209.844 124.55L210.136 122.173C210.221 121.476 210.698 120.897 211.358 120.657C211.726 120.524 212.086 120.371 212.435 120.199C213.068 119.889 213.816 119.947 214.379 120.371L216.292 121.812L220.998 115.563L219.076 114.118C218.512 113.694 218.26 112.988 218.382 112.294C218.415 112.106 218.443 111.916 218.467 111.724C218.49 111.533 218.509 111.341 218.522 111.151C218.572 110.45 218.985 109.83 219.63 109.556L221.851 108.612L218.794 101.409L216.584 102.346C215.935 102.621 215.195 102.496 214.656 102.041C214.36 101.791 214.049 101.557 213.726 101.339C213.144 100.946 212.822 100.27 212.908 99.5731L213.199 97.1949L205.431 96.242L205.139 98.6202C205.054 99.317 204.578 99.8953 203.918 100.136C203.552 100.269 203.194 100.422 202.847 100.593C202.214 100.903 201.465 100.846 200.902 100.423L198.983 98.9795L194.278 105.23L196.196 106.674C196.758 107.097 197.009 107.801 196.888 108.493C196.854 108.682 196.826 108.873 196.802 109.067C196.779 109.259 196.76 109.45 196.747 109.641C196.697 110.344 196.282 110.969 195.633 111.244L193.425 112.181ZM201.277 109.616C201.708 106.103 204.902 103.606 208.415 104.037C211.928 104.468 214.43 107.664 213.999 111.176C213.568 114.689 210.367 117.191 206.854 116.76C203.342 116.329 200.846 113.128 201.277 109.616Z" fill="#ECECEC"/>
<path d="M459.597 333.231H429.701V320.597H459.597V333.231Z" stroke="#ECECEC" stroke-miterlimit="10"/>
<path d="M98.296 317.301H68.4V304.667H98.296V317.301Z" stroke="#ECECEC" stroke-miterlimit="10"/>
<path d="M81.619 333.231H51.723V320.597H81.619V333.231Z" stroke="#ECECEC" stroke-miterlimit="10"/>
<path d="M81.619 59.87H51.723V47.236H81.619V59.87Z" stroke="#ECECEC" stroke-miterlimit="10"/>
<path d="M459.597 59.87H429.701V47.236H459.597V59.87Z" stroke="#ECECEC" stroke-miterlimit="10"/>
<path d="M442.919 75.8H413.023V63.166H442.919V75.8Z" stroke="#ECECEC" stroke-miterlimit="10"/>
<path d="M205.586 97.438H175.69V84.804H205.586V97.438Z" stroke="#ECECEC" stroke-miterlimit="10"/>
<path d="M96.4098 304.512C82.856 316.791 79.8969 336.485 81.9772 353.915C82.0329 354.311 82.6456 354.228 82.66 353.858C82.8128 349.914 82.8454 346.002 83.0084 342.107C83.0873 341.93 83.1517 341.766 83.2306 341.59C86.7341 339.244 89.9763 336.564 92.0676 332.803C94.4142 328.599 95.4591 323.794 97.3016 319.379C97.4731 318.956 97.0115 319.065 96.7032 319.274C88.533 324.825 85.7555 331.032 83.1497 339.367C83.4261 334.998 83.9294 330.639 85.0402 326.302C87.0658 318.374 90.7694 310.583 96.7421 304.872C96.9658 304.653 96.6454 304.294 96.4098 304.512Z" fill="#1A2E35"/>
<path d="M98.8061 306.099C101.049 306.262 102.319 309.906 104.029 311.023C104.934 311.616 105.838 311.617 106.524 310.729C108.352 308.375 106.088 305.294 103.914 303.536C105.49 304.256 106.773 305.466 108.486 305.86C109.523 306.093 110.351 305.735 110.636 304.683C111.524 301.411 107.44 299.781 104.602 299.602C106.016 298.698 110.065 296.248 108.017 294.887C105.942 293.519 101.165 297.062 99.6065 298.23C97.3164 299.945 94.564 302.536 94.3548 305.35C94.0974 308.634 97.0507 306.721 98.8061 306.099Z" fill="#00897B"/>
<g opacity="0.1">
<path d="M98.8061 306.099C101.049 306.262 102.319 309.906 104.029 311.023C104.934 311.616 105.838 311.617 106.524 310.729C108.352 308.375 106.088 305.294 103.914 303.536C105.49 304.256 106.773 305.466 108.486 305.86C109.523 306.093 110.351 305.735 110.636 304.683C111.524 301.411 107.44 299.781 104.602 299.602C106.016 298.698 110.065 296.248 108.017 294.887C105.942 293.519 101.165 297.062 99.6065 298.23C97.3164 299.945 94.564 302.536 94.3548 305.35C94.0974 308.634 97.0507 306.721 98.8061 306.099Z" fill="black"/>
</g>
<path d="M98.1351 306.627C101.058 305.432 106.503 307.526 107.014 306.457C108.051 304.281 103.701 302.591 101.332 302.205C103.547 301.697 107.784 300.913 107.737 298.795C107.679 296.208 101.309 298.183 98.0334 300.499C93.9073 303.417 93.8184 306.382 94.4579 307.002C95.3356 307.851 97.6531 306.824 98.1351 306.627Z" fill="#00897B"/>
<path d="M58.1015 305.124C73.2035 315.44 78.8195 334.546 79.1344 352.098C79.1332 352.498 78.5144 352.498 78.4499 352.134C77.7609 348.248 77.1952 344.377 76.5028 340.539C76.4015 340.376 76.3135 340.221 76.2121 340.058C72.4213 338.211 68.8436 336 66.2597 332.559C63.3615 328.714 61.6719 324.097 59.2451 319.974C59.0178 319.579 59.4902 319.622 59.8241 319.788C68.6744 324.173 72.2709 329.942 75.9889 337.845C75.1188 333.555 74.0271 329.305 72.3353 325.16C69.2477 317.582 64.5166 310.368 57.8209 305.525C57.5701 305.34 57.8389 304.94 58.1015 305.124Z" fill="#1A2E35"/>
<path d="M55.9442 307.021C53.7434 307.488 52.9839 311.273 51.4416 312.611C50.6264 313.322 49.7319 313.446 48.9307 312.66C46.7981 310.577 48.621 307.218 50.5349 305.18C49.0723 306.108 47.9659 307.481 46.3229 308.105C45.3264 308.476 44.4584 308.237 44.0328 307.232C42.7066 304.112 46.5303 301.941 49.3172 301.376C47.7925 300.673 43.4477 298.799 45.29 297.171C47.1593 295.534 52.375 298.391 54.0785 299.335C56.5811 300.723 59.6613 302.913 60.252 305.672C60.9547 308.891 57.7681 307.399 55.9442 307.021Z" fill="#00897B"/>
<g opacity="0.1">
<path d="M55.9442 307.021C53.7434 307.488 52.9839 311.273 51.4416 312.611C50.6264 313.322 49.7319 313.446 48.9307 312.66C46.7981 310.577 48.621 307.218 50.5349 305.18C49.0723 306.108 47.9659 307.481 46.3229 308.105C45.3264 308.476 44.4584 308.237 44.0328 307.232C42.7066 304.112 46.5303 301.941 49.3172 301.376C47.7925 300.673 43.4477 298.799 45.29 297.171C47.1593 295.534 52.375 298.391 54.0785 299.335C56.5811 300.723 59.6613 302.913 60.252 305.672C60.9547 308.891 57.7681 307.399 55.9442 307.021Z" fill="black"/>
</g>
<path d="M56.6813 307.453C53.6229 306.668 48.5136 309.485 47.861 308.496C46.5374 306.481 50.6164 304.215 52.9103 303.509C50.6463 303.307 46.3435 303.109 46.1017 301.003C45.8057 298.432 52.3849 299.521 55.9457 301.369C60.4309 303.696 60.9235 306.622 60.3743 307.323C59.6209 308.284 57.1858 307.582 56.6813 307.453Z" fill="#00897B"/>
<path d="M81.5097 334.768C81.53 341.321 81.7548 348.127 82.763 354.608C82.8636 355.199 83.722 355.181 83.7279 354.56C83.7432 348.508 83.0183 342.454 83.0336 336.401C83.0456 330.276 83.4865 324.131 84.7458 318.125C86.8181 308.235 91.1322 298.033 98.8217 291.211C98.9931 291.048 98.7292 290.74 98.5558 290.89C83.2249 304.114 82.4804 323.06 82.2399 324.73C81.3464 318.16 80.5364 310.662 74.5256 303.201C74.2668 302.879 74.0117 302.974 73.9911 303.452C73.4742 315.309 75.796 321.891 81.6177 329.152C81.5299 331.03 81.4907 332.907 81.5097 334.768Z" fill="#1A2E35"/>
<path d="M98.6752 292.976C101.177 292.289 103.96 295.764 106.249 296.318C107.46 296.615 108.443 296.268 108.847 295.038C109.929 291.774 106.281 289.3 103.242 288.226C105.232 288.402 107.091 289.221 109.105 288.991C110.323 288.843 111.085 288.138 110.99 286.884C110.695 282.985 105.63 282.787 102.475 283.684C103.665 282.157 107.122 277.934 104.373 277.243C101.59 276.555 97.7616 282.245 96.5162 284.114C94.6868 286.861 92.6918 290.736 93.548 293.875C94.5322 297.546 97.0061 294.329 98.6752 292.976Z" fill="#00897B"/>
<g opacity="0.1">
<path d="M98.6752 292.976C101.177 292.289 103.96 295.764 106.249 296.318C107.46 296.615 108.443 296.268 108.847 295.038C109.929 291.774 106.281 289.3 103.242 288.226C105.232 288.402 107.091 289.221 109.105 288.991C110.323 288.843 111.085 288.138 110.99 286.884C110.695 282.985 105.63 282.787 102.475 283.684C103.665 282.157 107.122 277.934 104.373 277.243C101.59 276.555 97.7616 282.245 96.5162 284.114C94.6868 286.861 92.6918 290.736 93.548 293.875C94.5322 297.546 97.0061 294.329 98.6752 292.976Z" fill="black"/>
</g>
<path d="M98.1486 293.81C100.867 291.386 107.592 291.564 107.735 290.206C108.025 287.441 102.645 287.281 99.9223 287.773C102.134 286.367 106.438 283.885 105.571 281.599C104.512 278.809 98.3482 283.409 95.6792 287.187C92.3166 291.947 93.3612 295.204 94.2958 295.632C95.5765 296.218 97.6997 294.21 98.1486 293.81Z" fill="#00897B"/>
<path d="M69.913 338.734L64.1 383.149H99.474C98.745 379.213 92.161 338.683 92.161 338.683L69.913 338.734Z" fill="#00897B"/>
<path d="M404.717 449.196C404.717 460.836 337.982 470.271 255.66 470.271C173.338 470.271 106.603 460.836 106.603 449.196C106.603 437.556 173.338 428.121 255.66 428.121C337.982 428.121 404.717 437.556 404.717 449.196Z" fill="#ECECEC"/>
<path d="M138.613 140.363C138.729 134.065 135.996 122.94 127.978 122.285C119.959 121.63 116.67 132.566 120.721 133.196C124.772 133.826 130.507 111.585 117.873 104.704C105.239 97.823 93.752 109.361 93.752 109.361" stroke="#1A2E35" stroke-miterlimit="10"/>
<path d="M297.519 127.827C295.681 120.94 298.727 111.327 306.311 108.262C317.37 103.793 330.402 114.724 326.131 118.456C319.285 124.437 310.714 99.196 324.754 88.21C337.399 78.315 352.204 89.769 352.204 89.769" stroke="#1A2E35" stroke-miterlimit="10"/>
<path d="M353.85 97.54L351.278 95.9658L350.306 97.8735L352.594 99.2738L353.85 97.54Z" fill="#1A2E35"/>
<path d="M349.486 93.6769L348.781 90.7455L346.743 91.4068L347.371 94.0137L349.486 93.6769Z" fill="#1A2E35"/>
<path d="M349.131 87.8585L350.705 85.2867L348.797 84.3149L347.397 86.6023L349.131 87.8585Z" fill="#1A2E35"/>
<path d="M352.994 83.4948L355.925 82.7893L355.264 80.7521L352.657 81.3797L352.994 83.4948Z" fill="#1A2E35"/>
<path d="M358.812 83.1394L361.384 84.7135L362.356 82.8059L360.068 81.4056L358.812 83.1394Z" fill="#1A2E35"/>
<path d="M363.176 87.0024L363.881 89.9338L365.918 89.2726L365.291 86.6656L363.176 87.0024Z" fill="#1A2E35"/>
<path d="M363.531 92.8208L361.957 95.3926L363.865 96.3644L365.265 94.077L363.531 92.8208Z" fill="#1A2E35"/>
<path d="M359.668 97.1846L356.737 97.89L357.398 99.9272L360.005 99.2996L359.668 97.1846Z" fill="#1A2E35"/>
<path d="M98.934 121.149C102.637 115.791 101.295 108.444 95.9373 104.741C90.5776 101.037 83.2309 102.378 79.5277 107.736C75.8237 113.096 77.1654 120.443 82.5251 124.147C87.883 127.851 95.23 126.509 98.934 121.149ZM93.7622 117.575C92.031 120.079 88.6022 120.705 86.0993 118.976C83.5948 117.244 82.9678 113.815 84.6991 111.311C86.4287 108.808 89.8587 108.181 92.3632 109.912C94.8652 111.642 95.4919 115.072 93.7622 117.575Z" fill="#1A2E35"/>
<path d="M84.668 125.033L80.9366 122.454L79.3168 125.238L82.636 127.532L84.668 125.033Z" fill="#1A2E35"/>
<path d="M78.4347 118.868L77.6199 114.406L74.5063 115.229L75.2308 119.198L78.4347 118.868Z" fill="#1A2E35"/>
<path d="M78.3862 110.101L80.9654 106.37L78.1816 104.75L75.8877 108.069L78.3862 110.101Z" fill="#1A2E35"/>
<path d="M84.5518 103.867L89.0144 103.052L88.1905 99.9383L84.2219 100.663L84.5518 103.867Z" fill="#1A2E35"/>
<path d="M93.3197 103.82L97.051 106.399L98.6708 103.615L95.3517 101.321L93.3197 103.82Z" fill="#1A2E35"/>
<path d="M99.5529 109.985L100.368 114.447L103.481 113.623L102.757 109.655L99.5529 109.985Z" fill="#1A2E35"/>
<path d="M99.6014 118.752L97.0223 122.483L99.8061 124.103L102.1 120.784L99.6014 118.752Z" fill="#1A2E35"/>
<path d="M93.4358 124.986L88.9732 125.801L89.7971 128.915L93.7658 128.19L93.4358 124.986Z" fill="#1A2E35"/>
<path d="M85.0272 115.151L87.6378 118.224L91.6059 117.498L92.9591 113.702L90.3513 110.63L86.3825 111.353L85.0272 115.151ZM89.7199 113.375C90.3026 113.777 90.4484 114.571 90.0455 115.153C89.6445 115.733 88.8489 115.881 88.2665 115.478C87.6865 115.077 87.5412 114.28 87.9422 113.7C88.3442 113.117 89.1399 112.974 89.7199 113.375Z" fill="#1A2E35"/>
<path d="M213.131 71.0077C211.031 70.972 209.133 70.5286 207.437 69.6777C205.74 68.8277 204.292 67.7119 203.09 66.3313C201.888 64.9517 200.965 63.3807 200.322 61.6186C199.679 59.8564 199.372 58.0609 199.404 56.2292C199.436 54.3174 199.823 52.4927 200.567 50.7541C201.309 49.0155 202.32 47.4855 203.594 46.1599C204.869 44.8344 206.375 43.7899 208.112 43.0243C209.849 42.2597 211.727 41.8936 213.747 41.9279C215.82 41.9632 217.705 42.4193 219.4 43.2973C221.096 44.1742 222.538 45.3089 223.726 46.7033C224.914 48.0977 225.83 49.6745 226.474 51.4367C227.117 53.1989 227.424 54.9824 227.393 56.7861C227.361 58.6988 226.979 60.5166 226.249 62.2414C225.519 63.9663 224.524 65.4846 223.263 66.7963C222.002 68.1081 220.502 69.1467 218.766 69.9113C217.028 70.6769 215.151 71.042 213.131 71.0077ZM205.058 56.3253C205.037 57.5641 205.205 58.7662 205.563 59.9294C205.92 61.0936 206.447 62.1258 207.146 63.0268C207.844 63.9278 208.708 64.6565 209.735 65.2131C210.762 65.7696 211.936 66.0577 213.256 66.0801C214.602 66.103 215.797 65.8473 216.844 65.313C217.89 64.7797 218.777 64.0597 219.507 63.1559C220.235 62.2532 220.793 61.2335 221.175 60.0949C221.558 58.9562 221.759 57.7955 221.779 56.6096C221.8 55.3718 221.625 54.1696 221.255 53.0052C220.883 51.8407 220.349 50.8075 219.651 49.9065C218.952 49.0055 218.09 48.2847 217.062 47.7421C216.034 47.1996 214.874 46.9168 213.582 46.8949C212.235 46.872 211.033 47.1276 209.973 47.6616C208.913 48.1957 208.025 48.9077 207.31 49.7976C206.594 50.6886 206.046 51.7024 205.663 52.8411C205.28 53.9797 205.078 55.1405 205.058 56.3253Z" fill="#1A2E35"/>
<path d="M241.182 75.7589C239.47 75.5565 237.967 75.0797 236.673 74.3305C235.378 73.5812 234.316 72.6489 233.485 71.5336C232.654 70.4183 232.062 69.1752 231.71 67.8043C231.356 66.4343 231.265 65.0258 231.436 63.5819C231.61 62.1112 232.028 60.7509 232.692 59.5002C233.354 58.2503 234.22 57.1796 235.288 56.2889C236.356 55.3982 237.607 54.7396 239.041 54.3121C240.474 53.8854 242.046 53.7723 243.758 53.9748C245.469 54.1772 246.967 54.6533 248.248 55.401C249.528 56.1495 250.584 57.081 251.414 58.1963C252.245 59.3116 252.837 60.5547 253.191 61.9247C253.543 63.2956 253.634 64.7161 253.46 66.1868C253.289 67.6308 252.871 68.979 252.209 70.2288C251.545 71.4796 250.686 72.5511 249.632 73.4435C248.577 74.3357 247.334 74.9953 245.9 75.4218C244.466 75.8483 242.893 75.9613 241.182 75.7589ZM236.972 64.2367C236.861 65.1732 236.901 66.0389 237.092 66.8338C237.283 67.6297 237.591 68.3368 238.02 68.9575C238.448 69.5771 238.979 70.082 239.611 70.4679C240.243 70.8548 240.946 71.094 241.723 71.1858C242.498 71.2776 243.238 71.209 243.943 70.9802C244.648 70.7524 245.281 70.3853 245.843 69.8828C246.404 69.3792 246.871 68.7567 247.243 68.0143C247.616 67.272 247.858 66.4336 247.969 65.4971C248.077 64.5885 248.035 63.7296 247.846 62.9198C247.657 62.111 247.349 61.3958 246.92 60.7763C246.491 60.1556 245.961 59.6528 245.329 59.2659C244.697 58.879 243.993 58.6397 243.217 58.5479C242.441 58.4561 241.701 58.5317 240.995 58.7734C240.288 59.0151 239.653 59.3881 239.092 59.8907C238.53 60.3941 238.065 61.0168 237.692 61.7592C237.319 62.5015 237.08 63.3281 236.972 64.2367Z" fill="#1A2E35"/>
<path d="M274.765 70.3999C273.095 70.3858 271.644 70.0035 270.413 69.252C269.18 68.5016 268.219 67.4894 267.529 66.2175L267.425 78.5381L262.012 78.4923L262.264 48.7214L266.99 48.7613L266.959 52.3972C267.751 51.1659 268.769 50.1975 270.014 49.494C271.258 48.7914 272.69 48.4455 274.305 48.4592C275.733 48.4713 277.049 48.7724 278.256 49.3617C279.463 49.9509 280.5 50.7407 281.366 51.7311C282.233 52.7214 282.91 53.8852 283.398 55.2224C283.885 56.5595 284.122 57.9696 284.109 59.4505C284.096 60.9855 283.854 62.4245 283.386 63.7666C282.916 65.1096 282.267 66.2762 281.438 67.2652C280.608 68.2552 279.625 69.0259 278.489 69.5824C277.354 70.1378 276.112 70.4113 274.765 70.3999ZM272.987 65.7797C273.795 65.7865 274.543 65.6178 275.234 65.2727C275.923 64.9285 276.513 64.4635 277.002 63.8746C277.491 63.2867 277.874 62.6029 278.151 61.8232C278.427 61.0445 278.568 60.2387 278.575 59.4037C278.583 58.5147 278.441 57.6845 278.151 56.915C277.861 56.1446 277.457 55.4751 276.936 54.9047C276.416 54.3353 275.801 53.8851 275.09 53.556C274.378 53.227 273.605 53.0585 272.771 53.0514C272.259 53.0471 271.733 53.1306 271.194 53.3011C270.653 53.4715 270.153 53.7173 269.692 54.0364C269.232 54.3555 268.819 54.73 268.451 55.1569C268.084 55.5849 267.804 56.0545 267.611 56.5639L267.569 61.5317C268.044 62.7478 268.775 63.758 269.764 64.5604C270.754 65.3638 271.829 65.7699 272.987 65.7797Z" fill="#1A2E35"/>
<path d="M295.378 75.0589C293.604 75.1541 291.853 74.9637 290.129 74.4905C288.404 74.0163 286.909 73.2884 285.642 72.3049L287.477 68.8086C288.817 69.6529 290.11 70.2784 291.36 70.683C292.609 71.0886 293.839 71.2579 295.049 71.1929C296.124 71.1352 296.961 70.888 297.558 70.4513C298.155 70.0147 298.432 69.42 298.392 68.6671C298.351 67.9141 297.959 67.3824 297.214 67.0719C296.47 66.7614 295.265 66.4215 293.6 66.0523C292.208 65.7494 291.019 65.4488 290.031 65.1513C289.044 64.8538 288.243 64.4983 287.628 64.0867C287.012 63.6751 286.555 63.1869 286.254 62.6232C285.953 62.0595 285.784 61.3746 285.74 60.5678C285.682 59.4924 285.838 58.5126 286.209 57.6294C286.58 56.7473 287.125 55.9819 287.846 55.3364C288.566 54.6908 289.422 54.1802 290.413 53.8035C291.404 53.4268 292.49 53.2063 293.674 53.1427C295.261 53.0575 296.758 53.2064 298.169 53.5893C299.578 53.9723 300.889 54.644 302.101 55.6034L300.097 58.9877C298.978 58.2386 297.905 57.7034 296.875 57.3801C295.847 57.0578 294.835 56.9239 293.84 56.9773C292.926 57.0264 292.17 57.2553 291.572 57.6649C290.973 58.0756 290.696 58.6964 290.741 59.5302C290.761 59.9066 290.852 60.2112 291.013 60.4459C291.173 60.6796 291.421 60.8826 291.754 61.053C292.087 61.2245 292.52 61.3834 293.053 61.53C293.587 61.6776 294.249 61.8234 295.039 61.9692C296.511 62.2687 297.774 62.5784 298.83 62.8993C299.886 63.2201 300.756 63.604 301.441 64.0529C302.126 64.5019 302.639 65.0341 302.983 65.6485C303.326 66.264 303.522 67.0156 303.569 67.9034C303.68 69.9744 303.002 71.6491 301.534 72.9277C300.066 74.2073 298.013 74.9173 295.378 75.0589Z" fill="#1A2E35"/>
<path d="M309.44 64.5728L307.83 46.4651L313.222 45.986L314.831 64.0936L309.44 64.5728ZM310.394 75.3164L309.854 69.2404L315.246 68.7612L315.786 74.8373L310.394 75.3164Z" fill="#1A2E35"/>
<path d="M143.396 230.216L146.347 205.182L96.0979 199.258L99.1794 173.129L167.752 103.773L187.668 106.122L178.685 182.317L194.764 184.213L191.662 210.525L175.582 208.63L172.631 233.663L143.396 230.216ZM128.07 176.349L152.921 179.28L156.734 146.937L128.07 176.349Z" fill="#1A2E35"/>
<path d="M306.065 157.726C304.584 165.685 302.013 172.786 298.358 179.031C294.699 185.275 290.305 190.445 285.175 194.544C280.044 198.642 274.364 201.514 268.134 203.162C261.899 204.809 255.406 205.005 248.654 203.748C241.899 202.491 235.883 199.968 230.599 196.177C225.316 192.386 221.018 187.657 217.708 181.988C214.394 176.318 212.187 169.919 211.08 162.788C209.974 155.658 210.162 148.114 211.643 140.154C213.124 132.196 215.663 125.089 219.26 118.834C222.858 112.579 227.219 107.402 232.351 103.304C237.479 99.2049 243.196 96.3089 249.501 94.6108C255.805 92.9157 262.332 92.6941 269.087 93.9512C275.839 95.2077 281.822 97.7573 287.035 101.596C292.244 105.437 296.505 110.19 299.818 115.86C303.13 121.529 305.37 127.934 306.538 135.076C307.702 142.218 307.546 149.768 306.065 157.726ZM276.942 152.306C278.512 143.867 278.097 136.707 275.698 130.833C273.296 124.96 269.444 121.529 264.138 120.542C258.591 119.509 253.671 121.307 249.38 125.935C245.085 130.564 242.156 137.101 240.585 145.54C239.014 153.982 239.401 161.105 241.755 166.906C244.105 172.709 248.055 176.125 253.602 177.158C258.908 178.145 263.73 176.361 268.073 171.804C272.414 167.249 275.371 160.748 276.942 152.306Z" fill="#1A2E35"/>
<path d="M376.272 224.613L375.125 199.432L324.582 201.733L323.385 175.45L379.806 95.8941L399.841 94.983L403.329 171.626L419.504 170.891L420.708 197.357L404.534 198.094L405.68 223.274L376.272 224.613ZM352.417 173.944L377.413 172.807L375.932 140.274L352.417 173.944Z" fill="#1A2E35"/>
<path d="M359.429 192.527C353.332 190.945 341.877 191.006 339.369 198.65C336.861 206.294 346.729 212.045 348.286 208.253C349.844 204.461 329.555 193.693 319.916 204.373C310.277 215.053 318.815 228.916 318.815 228.916" stroke="#1A2E35" stroke-miterlimit="10"/>
<path d="M314.778 240.051L312.417 238.177L311.22 239.952L313.321 241.62L314.778 240.051Z" fill="#1A2E35"/>
<path d="M310.916 235.687L310.571 232.692L308.469 233.101L308.775 235.765L310.916 235.687Z" fill="#1A2E35"/>
<path d="M311.269 229.869L313.144 227.507L311.368 226.311L309.701 228.411L311.269 229.869Z" fill="#1A2E35"/>
<path d="M315.633 226.006L318.629 225.662L318.22 223.559L315.556 223.866L315.633 226.006Z" fill="#1A2E35"/>
<path d="M321.451 226.36L323.813 228.235L325.009 226.459L322.909 224.792L321.451 226.36Z" fill="#1A2E35"/>
<path d="M325.314 230.724L325.659 233.719L327.761 233.31L327.455 230.646L325.314 230.724Z" fill="#1A2E35"/>
<path d="M324.961 236.542L323.086 238.904L324.862 240.1L326.53 238L324.961 236.542Z" fill="#1A2E35"/>
<path d="M320.597 240.405L317.601 240.749L318.011 242.852L320.674 242.545L320.597 240.405Z" fill="#1A2E35"/>
<path d="M367.25 239.095C364.56 234.999 363.047 230.391 363.047 225.521C363.047 208.325 381.931 194.383 405.21 194.383C428.489 194.383 447.354 208.325 447.354 225.521C447.354 242.716 428.489 256.659 405.21 256.659C393.922 256.659 383.689 253.389 376.129 248.044L361.606 251.736L367.25 239.095Z" fill="white"/>
<path d="M367.25 239.095C364.56 234.999 363.047 230.391 363.047 225.521C363.047 208.325 381.931 194.383 405.21 194.383C428.489 194.383 447.354 208.325 447.354 225.521C447.354 242.716 428.489 256.659 405.21 256.659C393.922 256.659 383.689 253.389 376.129 248.044L361.606 251.736L367.25 239.095Z" stroke="#1A2E35" stroke-miterlimit="10"/>
<path d="M383.521 230.619V232.935H374.087V219.347H383.349V221.663H376.728V224.935H382.45V227.079H376.728V230.619H383.521Z" fill="#1A2E35"/>
<path d="M385.588 232.935V219.347H391.598C392.223 219.347 392.801 219.478 393.33 219.739C393.859 220.001 394.315 220.346 394.698 220.773C395.081 221.201 395.38 221.685 395.597 222.227C395.814 222.769 395.922 223.315 395.922 223.863C395.922 224.743 395.703 225.544 395.262 226.265C394.823 226.986 394.226 227.506 393.473 227.825L396.574 232.935H393.607L390.833 228.38H388.23V232.935H385.588ZM388.23 226.064H391.541C391.783 226.064 392.009 226.007 392.219 225.892C392.43 225.777 392.612 225.621 392.765 225.423C392.918 225.226 393.04 224.993 393.129 224.725C393.219 224.457 393.263 224.169 393.263 223.863C393.263 223.544 393.212 223.251 393.11 222.983C393.008 222.715 392.871 222.483 392.698 222.285C392.526 222.087 392.328 221.933 392.105 221.825C391.881 221.717 391.655 221.663 391.425 221.663H388.23V226.064Z" fill="#1A2E35"/>
<path d="M398.314 232.935V219.347H404.324C404.949 219.347 405.526 219.478 406.055 219.739C406.584 220.001 407.04 220.346 407.423 220.773C407.806 221.201 408.106 221.685 408.323 222.227C408.54 222.769 408.648 223.315 408.648 223.863C408.648 224.743 408.429 225.544 407.988 226.265C407.549 226.986 406.952 227.506 406.199 227.825L409.299 232.935H406.333L403.558 228.38H400.956V232.935H398.314ZM400.956 226.064H404.266C404.508 226.064 404.735 226.007 404.945 225.892C405.156 225.777 405.338 225.621 405.491 225.423C405.644 225.226 405.765 224.993 405.854 224.725C405.944 224.457 405.989 224.169 405.989 223.863C405.989 223.544 405.938 223.251 405.836 222.983C405.733 222.715 405.596 222.483 405.423 222.285C405.251 222.087 405.054 221.933 404.831 221.825C404.607 221.717 404.381 221.663 404.151 221.663H400.956V226.064Z" fill="#1A2E35"/>
<path d="M416.839 233.03C415.844 233.03 414.942 232.836 414.131 232.447C413.32 232.058 412.625 231.542 412.045 230.897C411.464 230.253 411.015 229.516 410.696 228.686C410.378 227.857 410.218 227.009 410.218 226.141C410.218 225.235 410.387 224.368 410.725 223.538C411.063 222.709 411.529 221.976 412.122 221.338C412.716 220.7 413.421 220.192 414.237 219.816C415.053 219.44 415.94 219.251 416.897 219.251C417.879 219.251 418.775 219.452 419.586 219.854C420.397 220.256 421.089 220.782 421.662 221.433C422.236 222.083 422.684 222.824 423.002 223.653C423.321 224.483 423.48 225.324 423.48 226.179C423.48 227.085 423.314 227.949 422.983 228.772C422.651 229.595 422.191 230.323 421.605 230.954C421.018 231.586 420.316 232.09 419.5 232.466C418.684 232.842 417.796 233.03 416.839 233.03ZM412.897 226.141C412.897 226.728 412.986 227.296 413.165 227.844C413.344 228.393 413.602 228.878 413.94 229.299C414.278 229.72 414.693 230.058 415.184 230.313C415.675 230.568 416.233 230.696 416.859 230.696C417.497 230.696 418.061 230.565 418.552 230.303C419.043 230.042 419.457 229.694 419.796 229.26C420.134 228.826 420.389 228.338 420.562 227.796C420.734 227.254 420.82 226.702 420.82 226.141C420.82 225.554 420.728 224.987 420.543 224.438C420.357 223.89 420.096 223.404 419.758 222.983C419.419 222.562 419.005 222.228 418.514 221.979C418.023 221.73 417.471 221.605 416.859 221.605C416.22 221.605 415.653 221.737 415.156 221.998C414.658 222.26 414.243 222.604 413.912 223.031C413.58 223.459 413.328 223.944 413.156 224.486C412.983 225.028 412.897 225.58 412.897 226.141Z" fill="#1A2E35"/>
<path d="M425.508 232.935V219.347H431.518C432.143 219.347 432.721 219.478 433.25 219.739C433.779 220.001 434.235 220.346 434.618 220.773C435.001 221.201 435.3 221.685 435.517 222.227C435.734 222.769 435.842 223.315 435.842 223.863C435.842 224.743 435.622 225.544 435.182 226.265C434.743 226.986 434.146 227.506 433.393 227.825L436.494 232.935H433.527L430.753 228.38H428.15V232.935H425.508ZM428.15 226.064H431.461C431.703 226.064 431.929 226.007 432.139 225.892C432.35 225.777 432.532 225.621 432.685 225.423C432.838 225.226 432.959 224.993 433.048 224.725C433.138 224.457 433.183 224.169 433.183 223.863C433.183 223.544 433.132 223.251 433.03 222.983C432.928 222.715 432.791 222.483 432.618 222.285C432.446 222.087 432.248 221.933 432.025 221.825C431.801 221.717 431.575 221.663 431.345 221.663H428.15V226.064Z" fill="#1A2E35"/>
<path d="M364.986 260.205L335.738 254.017L338.353 241.656L367.602 247.845L364.986 260.205Z" stroke="#ECECEC" stroke-miterlimit="10"/>
<path d="M277.144 320.719L242.401 313.368L243.003 310.521L277.746 317.872L277.144 320.719Z" fill="#2B454E"/>
<path d="M276.36 324.426L241.617 317.075L242.219 314.228L276.962 321.579L276.36 324.426Z" fill="#2B454E"/>
<path d="M275.575 328.133L240.832 320.782L241.435 317.935L276.178 325.286L275.575 328.133Z" fill="#2B454E"/>
<path d="M274.791 331.841L240.048 324.49L240.65 321.643L275.393 328.994L274.791 331.841Z" fill="#2B454E"/>
<path d="M274.006 335.548L239.264 328.197L239.866 325.35L274.609 332.701L274.006 335.548Z" fill="#2B454E"/>
<path d="M291.634 407.659H224.118V404.749H291.634V407.659Z" fill="#2B454E"/>
<path d="M291.634 411.448H224.118V408.538H291.634V411.448Z" fill="#2B454E"/>
<path d="M291.634 415.238H224.118V412.328H291.634V415.238Z" fill="#2B454E"/>
<path d="M291.634 419.027H224.118V416.117H291.634V419.027Z" fill="#2B454E"/>
<path d="M291.634 422.816H224.118V419.906H291.634V422.816Z" fill="#2B454E"/>
<path d="M202.728 277.42C202.842 277.042 189.379 269.123 189.379 269.123L200.768 219.52L220.854 219.463L202.728 277.42Z" fill="#00897B"/>
<g opacity="0.2">
<path d="M202.728 277.42C202.842 277.042 189.379 269.123 189.379 269.123L200.768 219.52L220.854 219.463L202.728 277.42Z" fill="black"/>
</g>
<path d="M331.31 325.043C331.491 324.691 346.676 328.353 346.676 328.353L372.957 284.77L358.554 270.771L331.31 325.043Z" fill="#00897B"/>
<g opacity="0.2">
<path d="M331.31 325.043C331.491 324.691 346.676 328.353 346.676 328.353L372.957 284.77L358.554 270.771L331.31 325.043Z" fill="black"/>
</g>
<path d="M196.06 295.162C196.06 295.162 218.467 215.783 228.783 190.293C228.783 190.293 324.491 218.228 372.751 249.408C372.751 249.408 325.782 337.725 323.394 342.096C323.394 342.096 257.758 314.112 196.06 295.162Z" fill="#00897B"/>
<g opacity="0.1">
<path d="M303.242 217.281C299.609 226.641 295.959 235.994 292.254 245.325L281.096 273.3L280.913 272.832L311.865 287.47L327.308 294.859L342.714 302.322L327.144 295.206L311.607 288.016L280.601 273.495L280.288 273.348L280.418 273.027L291.746 245.12C295.535 235.823 299.379 226.548 303.242 217.281Z" fill="black"/>
</g>
<g opacity="0.1">
<path d="M298.498 222.05C298.327 222.942 297.426 223.705 296.389 223.579C295.886 223.522 295.383 223.252 295.056 222.817C294.729 222.382 294.603 221.794 294.715 221.25C294.832 220.707 295.185 220.219 295.661 219.955C296.136 219.687 296.706 219.646 297.19 219.797C298.189 220.101 298.703 221.166 298.498 222.05ZM298.498 222.05C298.588 221.601 298.482 221.119 298.208 220.766C297.933 220.412 297.52 220.204 297.112 220.166C296.271 220.087 295.583 220.71 295.448 221.405C295.289 222.094 295.664 222.946 296.467 223.214C296.855 223.343 297.32 223.322 297.713 223.109C298.107 222.897 298.399 222.498 298.498 222.05Z" fill="black"/>
</g>
<g opacity="0.1">
<path d="M294.254 233.67C294.084 234.562 293.183 235.325 292.146 235.198C291.643 235.141 291.14 234.871 290.813 234.436C290.486 234.002 290.36 233.413 290.472 232.869C290.59 232.327 290.942 231.838 291.418 231.574C291.892 231.307 292.463 231.265 292.946 231.416C293.946 231.721 294.46 232.785 294.254 233.67ZM294.254 233.67C294.345 233.221 294.239 232.738 293.965 232.385C293.69 232.031 293.276 231.823 292.868 231.785C292.028 231.706 291.34 232.329 291.205 233.024C291.046 233.713 291.421 234.565 292.223 234.833C292.612 234.963 293.077 234.94 293.47 234.727C293.864 234.515 294.156 234.117 294.254 233.67Z" fill="black"/>
</g>
<g opacity="0.1">
<path d="M289.473 245.882C289.302 246.774 288.401 247.537 287.365 247.411C286.862 247.354 286.359 247.084 286.031 246.649C285.704 246.214 285.578 245.626 285.69 245.082C285.808 244.54 286.16 244.051 286.636 243.787C287.111 243.519 287.681 243.479 288.165 243.629C289.164 243.933 289.678 244.998 289.473 245.882ZM289.473 245.882C289.564 245.433 289.457 244.951 289.183 244.598C288.909 244.244 288.495 244.036 288.087 243.998C287.246 243.919 286.558 244.542 286.423 245.237C286.264 245.926 286.639 246.779 287.442 247.046C287.83 247.175 288.295 247.154 288.689 246.941C289.082 246.729 289.374 246.33 289.473 245.882Z" fill="black"/>
</g>
<g opacity="0.1">
<path d="M284.691 258.096C284.521 258.988 283.619 259.751 282.583 259.625C282.08 259.566 281.577 259.297 281.25 258.862C280.922 258.428 280.797 257.839 280.908 257.296C281.026 256.753 281.378 256.265 281.854 256C282.329 255.733 282.9 255.691 283.383 255.842C284.383 256.147 284.896 257.211 284.691 258.096ZM284.691 258.096C284.782 257.647 284.675 257.165 284.401 256.811C284.127 256.458 283.713 256.25 283.305 256.211C282.464 256.133 281.776 256.756 281.641 257.451C281.482 258.14 281.857 258.993 282.66 259.26C283.048 259.389 283.513 259.367 283.907 259.154C284.3 258.942 284.592 258.543 284.691 258.096Z" fill="black"/>
</g>
<g opacity="0.1">
<path d="M287.586 279.801C287.417 280.693 286.515 281.456 285.478 281.329C284.976 281.271 284.472 281.002 284.145 280.567C283.818 280.133 283.692 279.544 283.804 279C283.922 278.458 284.274 277.969 284.75 277.705C285.225 277.437 285.795 277.397 286.279 277.547C287.278 277.853 287.792 278.916 287.586 279.801ZM287.586 279.801C287.677 279.352 287.571 278.869 287.297 278.516C287.022 278.162 286.609 277.954 286.201 277.916C285.36 277.837 284.672 278.46 284.537 279.155C284.378 279.844 284.752 280.697 285.556 280.964C285.944 281.094 286.409 281.071 286.803 280.858C287.196 280.646 287.488 280.248 287.586 279.801Z" fill="black"/>
</g>
<g opacity="0.1">
<path d="M298.918 285.243C298.749 286.136 297.846 286.898 296.81 286.772C296.307 286.714 295.804 286.445 295.477 286.009C295.15 285.575 295.024 284.987 295.136 284.443C295.254 283.901 295.606 283.412 296.082 283.148C296.556 282.88 297.127 282.839 297.61 282.99C298.61 283.295 299.124 284.359 298.918 285.243ZM298.918 285.243C299.009 284.794 298.903 284.312 298.629 283.959C298.354 283.605 297.94 283.397 297.532 283.359C296.691 283.28 296.004 283.903 295.869 284.598C295.71 285.287 296.084 286.14 296.887 286.407C297.276 286.536 297.741 286.514 298.134 286.301C298.528 286.089 298.82 285.69 298.918 285.243Z" fill="black"/>
</g>
<g opacity="0.1">
<path d="M310.251 290.686C310.081 291.578 309.179 292.341 308.143 292.215C307.64 292.156 307.137 291.887 306.81 291.452C306.483 291.018 306.357 290.429 306.469 289.886C306.587 289.343 306.938 288.855 307.414 288.591C307.889 288.323 308.46 288.281 308.943 288.433C309.943 288.737 310.457 289.802 310.251 290.686ZM310.251 290.686C310.342 290.237 310.236 289.755 309.962 289.401C309.687 289.048 309.273 288.84 308.865 288.801C308.024 288.723 307.336 289.346 307.202 290.041C307.042 290.73 307.417 291.582 308.22 291.85C308.609 291.979 309.073 291.957 309.467 291.744C309.861 291.532 310.152 291.133 310.251 290.686Z" fill="black"/>
</g>
<g opacity="0.1">
<path d="M321.583 296.13C321.413 297.022 320.511 297.785 319.474 297.658C318.972 297.6 318.468 297.331 318.141 296.896C317.814 296.462 317.688 295.873 317.8 295.329C317.918 294.787 318.27 294.298 318.746 294.034C319.221 293.767 319.792 293.725 320.275 293.876C321.274 294.181 321.788 295.245 321.583 296.13ZM321.583 296.13C321.674 295.681 321.567 295.198 321.293 294.845C321.019 294.491 320.605 294.283 320.197 294.245C319.356 294.166 318.668 294.789 318.533 295.484C318.374 296.173 318.749 297.026 319.552 297.294C319.94 297.423 320.405 297.401 320.798 297.188C321.192 296.976 321.484 296.577 321.583 296.13Z" fill="black"/>
</g>
<g opacity="0.1">
<path d="M332.882 301.703C332.644 302.58 331.686 303.271 330.663 303.066C330.166 302.969 329.684 302.661 329.392 302.203C329.098 301.744 329.018 301.148 329.172 300.614C329.33 300.082 329.72 299.623 330.215 299.395C330.709 299.166 331.281 299.168 331.751 299.356C332.724 299.736 333.155 300.837 332.882 301.703ZM332.882 301.703C333.007 301.263 332.938 300.773 332.692 300.4C332.445 300.026 332.048 299.786 331.645 299.717C330.813 299.574 330.078 300.143 329.891 300.825C329.678 301.5 329.987 302.379 330.767 302.707C331.144 302.867 331.608 302.88 332.018 302.698C332.427 302.517 332.748 302.141 332.882 301.703Z" fill="black"/>
</g>
<g opacity="0.1">
<path d="M279.909 270.31C279.739 271.202 278.837 271.965 277.801 271.838C277.298 271.781 276.795 271.511 276.468 271.076C276.14 270.642 276.015 270.053 276.127 269.509C276.244 268.967 276.596 268.478 277.072 268.214C277.547 267.947 278.118 267.905 278.601 268.056C279.601 268.361 280.114 269.425 279.909 270.31ZM279.909 270.31C280 269.861 279.893 269.378 279.62 269.025C279.345 268.671 278.931 268.463 278.523 268.425C277.682 268.346 276.994 268.969 276.859 269.664C276.7 270.353 277.075 271.205 277.878 271.474C278.267 271.603 278.731 271.581 279.125 271.368C279.518 271.156 279.81 270.757 279.909 270.31Z" fill="black"/>
</g>
<g opacity="0.2">
<path d="M267.564 272.766C261.939 287.308 245.59 294.535 231.048 288.91C216.507 283.285 209.279 266.936 214.904 252.394C220.53 237.853 236.879 230.626 251.42 236.251C265.962 241.876 273.189 258.225 267.564 272.766Z" fill="black"/>
</g>
<path d="M262.351 270.75C257.839 282.411 244.727 288.208 233.065 283.697C221.403 279.185 215.606 266.074 220.118 254.411C224.63 242.75 237.742 236.952 249.403 241.464C261.066 245.976 266.862 259.088 262.351 270.75Z" fill="#1A2E35"/>
<path d="M242.692 266.035L247.635 268.111L245.559 273.055L240.616 270.979L242.692 266.035Z" fill="#00897B"/>
<path d="M245.558 273.055L250.502 275.131L248.426 280.075L243.482 277.999L245.558 273.055Z" fill="#00897B"/>
<path d="M225.784 264.749L230.728 266.825L228.652 271.768L223.708 269.692L225.784 264.749Z" fill="#00897B"/>
<path d="M253.818 253.393L258.762 255.469L256.685 260.412L251.742 258.336L253.818 253.393Z" fill="#00897B"/>
<path d="M234.043 245.086L238.987 247.163L236.911 252.106L231.967 250.03L234.043 245.086Z" fill="#00897B"/>
<path d="M246.797 256.259L251.741 258.335L249.665 263.279L244.721 261.203L246.797 256.259Z" fill="#00897B"/>
<path d="M239.8 259.071L244.744 261.147L242.668 266.09L237.724 264.014L239.8 259.071Z" fill="#00897B"/>
<path d="M232.804 261.882L237.748 263.958L235.672 268.902L230.728 266.826L232.804 261.882Z" fill="#00897B"/>
<path d="M236.91 252.106L241.854 254.182L239.778 259.126L234.834 257.05L236.91 252.106Z" fill="#00897B"/>
<path d="M338.421 301.909C331.754 316.003 314.923 322.024 300.829 315.357C286.735 308.69 280.714 291.859 287.381 277.765C294.048 263.671 310.878 257.65 324.972 264.317C339.067 270.984 345.088 287.814 338.421 301.909Z" fill="#00897B"/>
<g opacity="0.2">
<path d="M338.421 301.909C331.754 316.003 314.923 322.024 300.829 315.357C286.735 308.69 280.714 291.859 287.381 277.765C294.048 263.671 310.878 257.65 324.972 264.317C339.067 270.984 345.088 287.814 338.421 301.909Z" fill="black"/>
</g>
<g opacity="0.2">
<path d="M338.423 301.914C338.181 302.431 337.925 302.926 337.65 303.417L286.244 280.543C286.574 279.609 286.95 278.684 287.382 277.762C294.047 263.672 310.878 257.65 324.978 264.317C339.068 270.983 345.09 287.815 338.423 301.914Z" fill="black"/>
</g>
<path d="M333.368 299.519C328.022 310.822 314.523 315.651 303.22 310.304C291.917 304.958 287.087 291.46 292.434 280.156C297.781 268.853 311.28 264.024 322.583 269.37C333.886 274.717 338.715 288.216 333.368 299.519Z" fill="#1A2E35"/>
<path d="M309.647 302.911L304.788 300.677L315.939 277.785L320.799 280.019L309.647 302.911Z" fill="#00897B"/>
<path d="M335.298 306.182L286.048 282.051C289.602 262.893 311.174 255.464 326.352 263.175C341.343 270.778 347.513 291.845 335.298 306.182Z" fill="#00695C"/>
<g opacity="0.1">
<path d="M261.057 294.826C262.657 293.228 264.791 292.057 267.215 291.779C268.424 291.627 269.706 291.8 270.884 292.256C272.069 292.715 273.086 293.508 273.934 294.393C274.772 295.323 275.434 296.49 275.694 297.762C275.928 299.034 275.825 300.331 275.427 301.477C274.656 303.78 273.154 305.645 271.346 307.008C272.528 305.095 273.519 303.1 273.906 301.086C274.307 299.066 273.811 297.156 272.463 295.741C271.135 294.243 269.327 293.363 267.286 293.322C265.244 293.279 263.106 293.906 261.057 294.826Z" fill="black"/>
</g>
<path d="M218.157 228.086C219.01 225.184 219.963 222.318 220.866 219.433C221.802 216.561 222.745 213.691 223.724 210.834C224.684 207.971 225.687 205.122 226.682 202.272C227.67 199.418 228.714 196.584 229.726 193.74L229.996 192.981L230.779 193.198C237.067 194.948 243.317 196.808 249.529 198.804C252.635 199.802 255.728 200.842 258.808 201.919C261.873 203.042 264.95 204.13 267.97 205.37L249.126 200.148L230.313 194.878L231.365 194.336C230.314 197.167 229.291 200.008 228.215 202.829C227.145 205.653 226.082 208.479 224.978 211.29C223.892 214.108 222.772 216.913 221.642 219.715C220.48 222.505 219.368 225.314 218.157 228.086Z" fill="white"/>
<path d="M218.027 251.381C219.418 247.969 221.747 244.929 224.535 242.444C225.231 241.818 225.989 241.265 226.728 240.685C227.507 240.161 228.305 239.663 229.099 239.155C229.937 238.725 230.781 238.302 231.633 237.898C232.517 237.569 233.395 237.216 234.289 236.91C235.208 236.685 236.125 236.447 237.048 236.244L239.864 235.892L242.7 235.906C243.64 235.965 244.571 236.133 245.5 236.258C249.203 236.943 252.661 238.495 255.704 240.546C252.304 239.134 248.852 238.019 245.304 237.615C241.767 237.205 238.176 237.529 234.802 238.589C231.414 239.605 228.239 241.322 225.404 243.498C222.575 245.69 220.062 248.319 218.027 251.381Z" fill="white"/>
<path d="M292.636 274.962C294.486 271.775 297.211 269.087 300.316 267.011C301.091 266.487 301.919 266.042 302.731 265.57C303.574 265.159 304.434 264.777 305.29 264.382C306.179 264.072 307.073 263.769 307.973 263.487C308.894 263.284 309.813 263.056 310.741 262.875C311.683 262.78 312.624 262.671 313.565 262.598L316.404 262.637L319.208 263.043C320.132 263.231 321.032 263.526 321.935 263.778C325.508 264.967 328.718 266.982 331.448 269.434C328.275 267.565 325.012 265.986 321.553 265.095C318.106 264.2 314.505 264.024 311.018 264.609C307.522 265.147 304.14 266.41 301.032 268.174C297.927 269.955 295.075 272.21 292.636 274.962Z" fill="white"/>
<path d="M195.416 359.584C188.34 361.081 172.515 362.768 159.836 352.062C143.615 338.365 141.567 305.93 141.487 304.556L147.202 304.225C147.22 304.537 149.192 335.583 163.529 347.689C177.546 359.525 197.102 353.262 197.297 353.195L199.104 358.626C198.89 358.697 197.552 359.132 195.416 359.584Z" fill="#00897B"/>
<g opacity="0.4">
<path d="M195.416 359.584C188.34 361.081 172.515 362.768 159.836 352.062C143.615 338.365 141.567 305.93 141.487 304.556L147.202 304.225C147.22 304.537 149.192 335.583 163.529 347.689C177.546 359.525 197.102 353.262 197.297 353.195L199.104 358.626C198.89 358.697 197.552 359.132 195.416 359.584Z" fill="white"/>
</g>
<path d="M149.638 307.69C148.628 307.903 147.579 308.037 146.492 308.089C136.833 308.553 131.517 303.839 128.757 299.803C125.991 295.758 124.434 290.486 124.129 284.136L136.379 283.549C136.568 287.483 137.456 290.797 138.88 292.881C139.896 294.367 141.613 296.046 145.906 295.839C147.867 295.745 149.881 295.15 151.344 291.458C152.471 288.609 152.746 284.996 152.64 282.769L164.89 282.182C164.974 283.934 165.068 290.109 162.746 295.972C160.22 302.35 155.629 306.422 149.638 307.69Z" fill="#00897B"/>
<path d="M210.506 373.135C210.431 372.884 200.079 373.403 200.079 373.403L188.304 341.75L199.419 334.393L210.506 373.135Z" fill="#00897B"/>
<g opacity="0.2">
<path d="M210.506 373.135C210.431 372.884 200.079 373.403 200.079 373.403L188.304 341.75L199.419 334.393L210.506 373.135Z" fill="black"/>
</g>
<path d="M307.956 375.851C307.983 375.591 318.251 374.182 318.251 374.182L323.956 340.895L311.671 335.725L307.956 375.851Z" fill="#00897B"/>
<g opacity="0.2">
<path d="M307.956 375.851C307.983 375.591 318.251 374.182 318.251 374.182L323.956 340.895L311.671 335.725L307.956 375.851Z" fill="black"/>
</g>
<path d="M202.501 328.111C202.501 328.111 285.287 324.571 313.252 329.232C313.252 329.232 305.04 409.338 304.596 410.892C304.596 410.892 222.245 410.67 209.372 410.892C209.372 410.892 202.395 357.625 202.501 328.111Z" fill="#00897B"/>
<g opacity="0.2">
<path d="M227.646 350.061C227.646 350.061 272.84 348.277 288.106 350.627C288.106 350.627 283.623 391.021 283.381 391.804C283.381 391.804 238.424 391.692 231.397 391.804C231.397 391.804 228.309 364.157 227.646 350.061Z" fill="black"/>
</g>
<g opacity="0.2">
<path d="M233.824 391.787C232.789 391.787 231.969 391.8 231.395 391.807C231.395 391.807 228.311 364.155 227.644 350.059C227.644 350.059 228.672 350.019 230.467 349.959L233.824 391.787Z" fill="black"/>
</g>
<path d="M251.358 356.749L253.917 359.685L255.854 357.711L253.578 355.099L251.358 356.749Z" fill="#00897B"/>
<path d="M255.239 363.199L254.973 367.086L257.739 367.06L257.975 363.603L255.239 363.199Z" fill="#00897B"/>
<path d="M253.423 370.508L250.486 373.067L252.461 375.004L255.072 372.728L253.423 370.508Z" fill="#00897B"/>
<path d="M246.971 374.39L243.084 374.124L243.111 376.889L246.567 377.126L246.971 374.39Z" fill="#00897B"/>
<path d="M239.663 372.573L237.104 369.636L235.167 371.611L237.443 374.222L239.663 372.573Z" fill="#00897B"/>
<path d="M235.781 366.121L236.047 362.234L233.281 362.261L233.044 365.718L235.781 366.121Z" fill="#00897B"/>
<path d="M237.598 358.813L240.534 356.254L238.56 354.317L235.948 356.593L237.598 358.813Z" fill="#00897B"/>
<path d="M244.05 354.932L247.937 355.198L247.91 352.432L244.453 352.195L244.05 354.932Z" fill="#00897B"/>
<path d="M266.813 372.8L267.942 375.168L269.556 374.238L268.552 372.132L266.813 372.8Z" fill="#DCDCDC"/>
<path d="M268.164 377.686L267.288 380.158L269.086 380.641L269.865 378.442L268.164 377.686Z" fill="#DCDCDC"/>
<path d="M265.664 382.096L263.297 383.225L264.227 384.839L266.333 383.835L265.664 382.096Z" fill="#DCDCDC"/>
<path d="M260.778 383.448L258.306 382.572L257.823 384.37L260.022 385.149L260.778 383.448Z" fill="#DCDCDC"/>
<path d="M256.369 380.948L255.24 378.581L253.626 379.511L254.63 381.617L256.369 380.948Z" fill="#DCDCDC"/>
<path d="M255.017 376.062L255.892 373.59L254.094 373.107L253.315 375.306L255.017 376.062Z" fill="#DCDCDC"/>
<path d="M257.516 371.652L259.883 370.523L258.954 368.91L256.848 369.914L257.516 371.652Z" fill="#DCDCDC"/>
<path d="M262.402 370.3L264.874 371.176L265.357 369.378L263.159 368.599L262.402 370.3Z" fill="#DCDCDC"/>
<path d="M311.254 401.569L314.436 402.161L323.536 340.535L319.91 339.869L311.254 401.569Z" fill="#00897B"/>
<path d="M283.38 391.804L288.106 350.627L319.91 339.869C319.91 339.869 311.254 402.236 311.254 401.57L283.38 391.804Z" fill="#00897B"/>
<g opacity="0.4">
<path d="M283.38 391.804L288.106 350.627L319.91 339.869C319.91 339.869 311.254 402.236 311.254 401.57L283.38 391.804Z" fill="white"/>
</g>
<path d="M206.3 352.295C205.782 348.884 205.502 345.445 205.289 342.003C205.191 340.281 205.147 338.557 205.109 336.833C205.075 335.109 205.045 333.383 205.096 331.658L205.11 331.205L205.551 331.181C211.869 330.842 218.182 330.427 224.504 330.151C230.824 329.839 237.144 329.555 243.469 329.357C237.164 329.928 230.856 330.415 224.546 330.872C218.238 331.365 211.923 331.72 205.612 332.15L206.066 331.673L206.041 336.823L206.101 341.974C206.11 343.693 206.141 345.412 206.191 347.131L206.3 352.295Z" fill="white"/>
<path d="M292.542 351.231C294.512 350.295 296.513 349.425 298.539 348.622C300.558 347.8 302.595 347.022 304.656 346.308C306.72 345.603 308.79 344.913 310.896 344.328C312.998 343.736 315.121 343.189 317.289 342.834L317.822 342.747L317.726 343.256C317.227 345.922 316.705 348.584 316.088 351.231C316.319 348.523 316.645 345.83 316.994 343.14L317.431 343.562C315.33 344.063 313.246 344.648 311.168 345.262C309.092 345.883 307.023 346.536 304.959 347.209L292.542 351.231Z" fill="white"/>
<g opacity="0.1">
<path d="M220.062 328.278L220.598 338.577L221.056 348.879L221.85 369.487L222.471 390.101L222.72 400.41L222.89 410.722L222.353 400.423L221.895 390.121L221.102 369.513L220.482 348.899L220.234 338.59L220.062 328.278Z" fill="black"/>
</g>
<g opacity="0.1">
<path d="M217.113 334.486C217.311 335.373 216.784 336.431 215.783 336.725C215.298 336.871 214.73 336.823 214.257 336.553C213.784 336.284 213.436 335.794 213.323 335.25C213.216 334.705 213.346 334.117 213.678 333.686C214.008 333.253 214.515 332.988 215.019 332.935C216.058 332.819 216.952 333.593 217.113 334.486ZM217.113 334.486C217.018 334.038 216.73 333.637 216.338 333.421C215.946 333.205 215.483 333.179 215.094 333.305C214.291 333.566 213.905 334.411 214.057 335.102C214.184 335.797 214.867 336.433 215.71 336.36C216.118 336.325 216.535 336.12 216.812 335.768C217.09 335.417 217.199 334.936 217.113 334.486Z" fill="black"/>
</g>
<g opacity="0.1">
<path d="M217.822 346.835C218.02 347.722 217.493 348.779 216.492 349.074C216.007 349.22 215.439 349.172 214.966 348.902C214.493 348.633 214.145 348.143 214.032 347.599C213.925 347.054 214.055 346.466 214.387 346.035C214.717 345.601 215.224 345.337 215.728 345.284C216.767 345.168 217.661 345.942 217.822 346.835ZM217.822 346.835C217.727 346.387 217.439 345.986 217.047 345.77C216.655 345.554 216.192 345.528 215.803 345.654C215 345.915 214.614 346.76 214.766 347.451C214.893 348.146 215.576 348.782 216.419 348.709C216.827 348.674 217.244 348.469 217.521 348.117C217.798 347.766 217.908 347.285 217.822 346.835Z" fill="black"/>
</g>
<g opacity="0.1">
<path d="M218.272 359.944C218.47 360.831 217.943 361.889 216.942 362.183C216.457 362.329 215.889 362.281 215.416 362.011C214.943 361.742 214.595 361.252 214.482 360.708C214.375 360.164 214.505 359.575 214.837 359.144C215.167 358.71 215.674 358.446 216.178 358.393C217.217 358.277 218.111 359.051 218.272 359.944ZM218.272 359.944C218.177 359.496 217.889 359.095 217.497 358.879C217.105 358.663 216.642 358.637 216.253 358.763C215.45 359.024 215.064 359.869 215.216 360.56C215.343 361.256 216.026 361.891 216.869 361.818C217.277 361.783 217.694 361.578 217.971 361.226C218.248 360.875 218.358 360.394 218.272 359.944Z" fill="black"/>
</g>
<g opacity="0.1">
<path d="M218.722 373.052C218.92 373.939 218.393 374.996 217.392 375.291C216.907 375.437 216.339 375.389 215.866 375.119C215.393 374.85 215.045 374.36 214.932 373.816C214.825 373.271 214.955 372.683 215.287 372.252C215.617 371.819 216.124 371.554 216.628 371.501C217.667 371.385 218.561 372.159 218.722 373.052ZM218.722 373.052C218.627 372.604 218.339 372.203 217.947 371.987C217.555 371.771 217.092 371.745 216.703 371.871C215.9 372.132 215.514 372.977 215.666 373.668C215.793 374.363 216.476 374.999 217.319 374.926C217.727 374.891 218.144 374.686 218.421 374.334C218.698 373.983 218.808 373.502 218.722 373.052Z" fill="black"/>
</g>
<g opacity="0.1">
<path d="M219.172 386.161C219.37 387.048 218.843 388.105 217.842 388.4C217.357 388.546 216.789 388.498 216.316 388.228C215.843 387.959 215.495 387.469 215.382 386.925C215.275 386.38 215.405 385.793 215.737 385.361C216.067 384.928 216.574 384.663 217.078 384.61C218.117 384.494 219.011 385.268 219.172 386.161ZM219.172 386.161C219.077 385.713 218.789 385.312 218.397 385.096C218.005 384.88 217.542 384.854 217.153 384.98C216.35 385.241 215.964 386.086 216.116 386.777C216.243 387.472 216.926 388.107 217.769 388.034C218.177 387.999 218.594 387.795 218.871 387.443C219.148 387.092 219.258 386.611 219.172 386.161Z" fill="black"/>
</g>
<g opacity="0.1">
<path d="M219.622 399.269C219.82 400.156 219.293 401.214 218.292 401.508C217.807 401.654 217.239 401.606 216.766 401.336C216.293 401.067 215.945 400.577 215.832 400.033C215.725 399.489 215.855 398.9 216.187 398.469C216.517 398.035 217.024 397.771 217.528 397.718C218.567 397.602 219.461 398.376 219.622 399.269ZM219.622 399.269C219.527 398.821 219.239 398.42 218.847 398.204C218.455 397.988 217.992 397.962 217.603 398.088C216.8 398.349 216.414 399.194 216.566 399.885C216.693 400.58 217.376 401.216 218.219 401.143C218.627 401.108 219.044 400.903 219.321 400.551C219.598 400.2 219.708 399.719 219.622 399.269Z" fill="black"/>
</g>
<path d="M175.526 422.28L175.83 416.565L224.742 419.174L224.437 424.889L175.526 422.28Z" fill="#00897B"/>
<g opacity="0.4">
<path d="M175.526 422.28L175.83 416.565L224.742 419.174L224.437 424.889L175.526 422.28Z" fill="white"/>
</g>
<path d="M195.895 424.422L196.232 415.928L201.951 416.154L201.614 424.648L195.895 424.422Z" fill="#00897B"/>
<path d="M172.43 429.693L178.896 376.326L141.62 372.031L141.138 426.15L172.43 429.693Z" fill="#00897B"/>
<path d="M180.953 429.949L172.43 429.693L178.896 376.327L188.907 382.904L180.953 429.949Z" fill="#00897B"/>
<g opacity="0.2">
<path d="M180.953 429.949L172.43 429.693L178.896 376.327L188.907 382.904L180.953 429.949Z" fill="black"/>
</g>
<path d="M230.432 424.148C229.263 427.375 225.7 429.043 222.473 427.874C219.246 426.705 217.578 423.142 218.747 419.915C219.916 416.688 223.479 415.02 226.706 416.189C229.932 417.358 231.601 420.921 230.432 424.148Z" fill="#00897B"/>
<path d="M336.371 427.314L287.459 424.715L287.763 418.999L336.676 421.598L336.371 427.314Z" fill="#00897B"/>
<g opacity="0.4">
<path d="M336.371 427.314L287.459 424.715L287.763 418.999L336.676 421.598L336.371 427.314Z" fill="white"/>
</g>
<path d="M315.889 427.281L310.179 426.898L310.747 418.417L316.457 418.8L315.889 427.281Z" fill="#00897B"/>
<path d="M338.664 435.014L337.901 381.262L375.421 380.948L370.154 434.812L338.664 435.014Z" fill="#00897B"/>
<path d="M330.16 434.363L338.663 435.015L337.9 381.262L327.247 386.74L330.16 434.363Z" fill="#00897B"/>
<g opacity="0.2">
<path d="M330.16 434.363L338.663 435.015L337.9 381.262L327.247 386.74L330.16 434.363Z" fill="black"/>
</g>
<path d="M281.577 423.341C282.397 426.674 285.763 428.711 289.095 427.891C292.428 427.071 294.465 423.705 293.645 420.373C292.826 417.04 289.46 415.003 286.127 415.823C282.794 416.643 280.757 420.009 281.577 423.341Z" fill="#00897B"/>
<path d="M327.578 357.408C327.751 357.303 345.371 346.758 361.711 355.097C378.419 363.628 387.402 393.413 387.49 393.712L392.979 392.092C392.59 390.772 383.233 359.649 364.312 350.001C345.071 340.18 325.408 352.024 324.58 352.534L327.578 357.408Z" fill="#00897B"/>
<g opacity="0.4">
<path d="M327.578 357.408C327.751 357.303 345.371 346.758 361.711 355.097C378.419 363.628 387.402 393.413 387.49 393.712L392.979 392.092C392.59 390.772 383.233 359.649 364.312 350.001C345.071 340.18 325.408 352.024 324.58 352.534L327.578 357.408Z" fill="white"/>
</g>
<path d="M375.275 419.2L387.071 415.843C386.461 413.699 385.908 410.118 386.359 407.088C386.944 403.16 388.771 402.122 390.659 401.585C394.792 400.408 396.846 401.655 398.173 402.869C400.033 404.574 401.652 407.6 402.73 411.389L414.525 408.032C412.785 401.917 410.072 397.137 406.458 393.826C402.852 390.526 396.603 387.143 387.302 389.789C380.052 391.852 375.408 397.354 374.228 405.283C373.3 411.521 374.795 417.512 375.275 419.2Z" fill="#00897B"/>
<path d="M340.997 331.945C343.348 330.321 345.754 328.791 348.169 327.275C350.578 325.75 353.027 324.292 355.476 322.834C357.937 321.397 360.4 319.963 362.901 318.594L366.655 316.544C367.925 315.892 369.178 315.211 370.463 314.585C369.293 315.406 368.09 316.171 366.904 316.966L363.292 319.256C360.882 320.781 358.434 322.24 355.984 323.696C353.522 325.132 351.06 326.567 348.558 327.935C346.062 329.313 343.557 330.676 340.997 331.945Z" fill="#1A2E35"/>
<path d="M343.681 337.031C346.171 336.384 348.679 335.845 351.191 335.322C353.701 334.788 356.223 334.331 358.746 333.875C361.273 333.442 363.802 333.011 366.343 332.656L370.155 332.128C371.432 331.988 372.703 331.813 373.985 331.703C372.742 332.037 371.488 332.307 370.24 332.611L366.476 333.414C363.966 333.947 361.443 334.404 358.92 334.859C356.392 335.291 353.864 335.722 351.323 336.076C348.784 336.441 346.242 336.79 343.681 337.031Z" fill="#1A2E35"/>
<path d="M338.584 359.628C341.182 360.417 343.739 361.309 346.291 362.216C348.847 363.112 351.374 364.082 353.902 365.052C356.421 366.044 358.939 367.038 361.429 368.104L365.163 369.707C366.394 370.275 367.638 370.812 368.858 371.408C367.555 371.023 366.277 370.577 364.985 370.164L361.15 368.821C358.594 367.924 356.067 366.955 353.54 365.984C351.022 364.991 348.503 363.997 346.013 362.93C343.519 361.874 341.032 360.802 338.584 359.628Z" fill="#1A2E35"/>
<path d="M334.323 364.544C337.69 366.462 340.88 368.627 344.028 370.852C347.158 373.102 350.245 375.414 353.153 377.974C349.785 376.058 346.594 373.893 343.448 371.666C340.319 369.415 337.233 367.102 334.323 364.544Z" fill="#1A2E35"/>
<path d="M277.282 355.943C275.851 349.808 276.195 338.358 283.899 336.04C291.603 333.723 297.108 343.728 293.279 345.191C289.45 346.655 279.188 326.107 290.102 316.734C301.016 307.362 314.664 316.241 314.664 316.241" stroke="#1A2E35" stroke-miterlimit="10"/>
<path d="M185.533 406.922C185.898 400.983 190.851 394.175 197.668 393.752C207.606 393.138 215.037 405.239 210.668 407.065C203.666 409.991 203.552 387.737 217.574 382.749C230.204 378.256 238.899 391.24 238.899 391.24" stroke="#1A2E35" stroke-miterlimit="10"/>
<path d="M185.251 379.176L187.516 381.773L189.229 380.027L187.215 377.717L185.251 379.176Z" fill="#375A64"/>
<path d="M188.686 384.883L188.45 388.321L190.897 388.298L191.107 385.24L188.686 384.883Z" fill="#375A64"/>
<path d="M187.079 391.347L184.481 393.612L186.227 395.325L188.538 393.311L187.079 391.347Z" fill="#375A64"/>
<path d="M181.371 394.781L177.933 394.546L177.956 396.993L181.014 397.202L181.371 394.781Z" fill="#375A64"/>
<path d="M174.907 393.174L172.643 390.577L170.93 392.323L172.943 394.633L174.907 393.174Z" fill="#375A64"/>
<path d="M171.473 387.467L171.709 384.029L169.261 384.052L169.052 387.11L171.473 387.467Z" fill="#375A64"/>
<path d="M173.08 381.003L175.677 378.738L173.931 377.025L171.621 379.039L173.08 381.003Z" fill="#375A64"/>
<path d="M178.788 377.569L182.225 377.804L182.202 375.357L179.145 375.148L178.788 377.569Z" fill="#375A64"/>
<path d="M343.658 356.997C350.04 352.937 351.923 344.47 347.863 338.088C343.802 331.704 335.334 329.82 328.952 333.88C322.568 337.941 320.685 346.409 324.747 352.793C328.806 359.175 337.274 361.058 343.658 356.997ZM339.739 350.836C336.756 352.733 332.803 351.854 330.907 348.874C329.009 345.891 329.889 341.938 332.872 340.04C335.852 338.144 339.804 339.023 341.702 342.006C343.598 344.987 342.72 348.939 339.739 350.836Z" fill="#1A2E35"/>
<path d="M326.64 354.708L323.812 350.263L320.823 352.511L323.337 356.464L326.64 354.708Z" fill="#1A2E35"/>
<path d="M322.756 345.297L323.899 340.154L320.195 339.629L319.179 344.202L322.756 345.297Z" fill="#1A2E35"/>
<path d="M326.664 335.894L331.109 333.066L328.861 330.077L324.908 332.591L326.664 335.894Z" fill="#1A2E35"/>
<path d="M336.076 332.01L341.218 333.153L341.744 329.45L337.171 328.433L336.076 332.01Z" fill="#1A2E35"/>
<path d="M345.479 335.92L348.306 340.364L351.296 338.117L348.781 334.164L345.479 335.92Z" fill="#1A2E35"/>
<path d="M349.363 345.33L348.22 350.473L351.923 350.998L352.94 346.425L349.363 345.33Z" fill="#1A2E35"/>
<path d="M345.453 354.733L341.009 357.561L343.256 360.55L347.209 358.036L345.453 354.733Z" fill="#1A2E35"/>
<path d="M336.041 358.616L330.899 357.474L330.374 361.177L334.947 362.194L336.041 358.616Z" fill="#1A2E35"/>
<path d="M331.487 344.297L332.892 348.766L337.466 349.78L340.628 346.331L339.226 341.865L334.653 340.846L331.487 344.297ZM337.311 344.517C337.752 345.211 337.548 346.125 336.854 346.566C336.164 347.005 335.246 346.804 334.805 346.11C334.366 345.42 334.57 344.5 335.261 344.061C335.955 343.62 336.872 343.826 337.311 344.517Z" fill="#1A2E35"/>
</g>
</g>
<defs>
<clipPath id="clip0_1_111">
<rect width="512" height="512" fill="white" transform="translate(0 0.5)"/>
</clipPath>
</defs>
</svg>
